ffmpeg started on 2025-06-30 at 14:46:02
Report written to "D:\Convert\FFMetrics\reports\ssim_report-6.txt"
Log level: 32
Command line:
ffmpeg -hide_banner -nostdin -i "G:\\\xc0\xed\xe8\xec\xe5\\\xce\xed\xe3\xee\xe8\xed\xe3\xe8\\!_37_\xc7\xe8\xec\xe0_2025\\JamClub\\\xc3\xee\xf1\xef\xee\xe4\xe8\xed \xe8 \xef\xb8\xf1\\JamClub_Tono_to_Inu_Woof_Woof!_S01E17_1080p_HEVC.mkv" -i "G:\\\xc0\xed\xe8\xec\xe5\\\xce\xed\xe3\xee\xe8\xed\xe3\xe8\\!_37_\xc7\xe8\xec\xe0_2025\\JamClub\\\xc3\xee\xf1\xef\xee\xe4\xe8\xed \xe8 \xef\xb8\xf1\\JamClub_Tono_to_Inu_Woof_Woof!_S01E17_1080p.mp4" -lavfi "[0:v]settb=AVTB,setpts=PTS-STARTPTS,format=pix_fmts=yuv420p10,fps=24000/1001,scale=1920:1080:flags=bicubic[main];[1:v]settb=AVTB,setpts=PTS-STARTPTS,format=pix_fmts=yuv420p,fps=24000/1001,scale=1920:1080:flags=bicubic[ref];[main][ref]ssim=eof_action=endall:stats_file='D\\:/Convert/FFMetrics/logs/ssim_logfile-6.txt'" -f null -
Input #0, matroska,webm, from 'G:\Аниме\Онгоинги\!_37_Зима_2025\JamClub\Господин и пёс\JamClub_Tono_to_Inu_Woof_Woof!_S01E17_1080p_HEVC.mkv':
  Metadata:
    COMPATIBLE_BRANDS: isomiso2avc1mp41
    MAJOR_BRAND     : isom
    MINOR_VERSION   : 512
    ENCODER         : Lavf61.7.100
  Duration: 00:02:56.30, start: -0.021000, bitrate: 1739 kb/s
  Stream #0:0: Video: hevc (Main 10), yuv420p10le(tv, bt709, progressive), 1920x1080 [SAR 1:1 DAR 16:9], 23.98 fps, 23.98 tbr, 1k tbn (default)
      Metadata:
        HANDLER_NAME    : VideoHandler
        VENDOR_ID       : [0][0][0][0]
        ENCODER         : Lavc61.19.100 libx265
        BPS             : 1550637
        DURATION        : 00:02:55.174708333
        NUMBER_OF_FRAMES: 4200
        NUMBER_OF_BYTES : 33953912
        _STATISTICS_WRITING_APP: mkvpropedit v66.0.0 ('Josie') 64-bit
        _STATISTICS_WRITING_DATE_UTC: 2025-06-28 16:11:00
        _STATISTICS_TAGS: BPS DURATION NUMBER_OF_FRAMES NUMBER_OF_BYTES
  Stream #0:1(eng): Audio: aac (LC), 48000 Hz, stereo, fltp (default)
      Metadata:
        HANDLER_NAME    : SoundHandler
        VENDOR_ID       : [0][0][0][0]
        ENCODER         : Lavc61.19.100 aac
        BPS             : 194164
        DURATION        : 00:02:56.280000000
        NUMBER_OF_FRAMES: 8264
        NUMBER_OF_BYTES : 4278418
        _STATISTICS_WRITING_APP: mkvpropedit v66.0.0 ('Josie') 64-bit
        _STATISTICS_WRITING_DATE_UTC: 2025-06-28 16:11:00
        _STATISTICS_TAGS: BPS DURATION NUMBER_OF_FRAMES NUMBER_OF_BYTES
Input #1, mov,mp4,m4a,3gp,3g2,mj2, from 'G:\Аниме\Онгоинги\!_37_Зима_2025\JamClub\Господин и пёс\JamClub_Tono_to_Inu_Woof_Woof!_S01E17_1080p.mp4':
  Metadata:
    major_brand     : isom
    minor_version   : 512
    compatible_brands: isomiso2avc1mp41
    encoder         : Lavf60.16.100
  Duration: 00:02:56.28, start: 0.000000, bitrate: 3607 kb/s
  Stream #1:0[0x1](und): Video: h264 (High) (avc1 / 0x31637661), yuv420p(tv, bt709, progressive), 1920x1080 [SAR 1:1 DAR 16:9], 3431 kb/s, 23.98 fps, 23.98 tbr, 90k tbn (default)
      Metadata:
        handler_name    : VideoHandler
        vendor_id       : [0][0][0][0]
  Stream #1:1[0x2](eng): Audio: aac (LC) (mp4a / 0x6134706D), 48000 Hz, stereo, fltp, 191 kb/s (default)
      Metadata:
        handler_name    : SoundHandler
        vendor_id       : [0][0][0][0]
Stream mapping:
  Stream #0:0 (hevc) -> settb:default
  Stream #1:0 (h264) -> settb:default
  ssim:default -> Stream #0:0 (wrapped_avframe)
  Stream #0:1 -> #0:1 (aac (native) -> pcm_s16le (native))
Output #0, null, to 'pipe:':
  Metadata:
    COMPATIBLE_BRANDS: isomiso2avc1mp41
    MAJOR_BRAND     : isom
    MINOR_VERSION   : 512
    encoder         : Lavf61.7.100
  Stream #0:0: Video: wrapped_avframe, yuv420p10le(tv, bt709, progressive), 1920x1080 [SAR 1:1 DAR 16:9], q=2-31, 200 kb/s, 23.98 fps, 23.98 tbn
      Metadata:
        encoder         : Lavc61.19.100 wrapped_avframe
  Stream #0:1(eng): Audio: pcm_s16le, 48000 Hz, stereo, s16, 1536 kb/s (default)
      Metadata:
        HANDLER_NAME    : SoundHandler
        VENDOR_ID       : [0][0][0][0]
        _STATISTICS_TAGS: BPS DURATION NUMBER_OF_FRAMES NUMBER_OF_BYTES
        BPS             : 194164
        DURATION        : 00:02:56.280000000
        NUMBER_OF_FRAMES: 8264
        NUMBER_OF_BYTES : 4278418
        _STATISTICS_WRITING_APP: mkvpropedit v66.0.0 ('Josie') 64-bit
        _STATISTICS_WRITING_DATE_UTC: 2025-06-28 16:11:00
        encoder         : Lavc61.19.100 pcm_s16le
frame=  119 fps=0.0 q=-0.0 size=N/A time=00:00:04.96 bitrate=N/A speed=9.52x    frame=  281 fps=272 q=-0.0 size=N/A time=00:00:11.72 bitrate=N/A speed=11.4x    frame=  475 fps=308 q=-0.0 size=N/A time=00:00:19.81 bitrate=N/A speed=12.9x    frame=  704 fps=340 q=-0.0 size=N/A time=00:00:29.36 bitrate=N/A speed=14.2x    frame=  950 fps=368 q=-0.0 size=N/A time=00:00:39.62 bitrate=N/A speed=15.4x    frame= 1184 fps=383 q=-0.0 size=N/A time=00:00:49.38 bitrate=N/A speed=  16x    frame= 1422 fps=394 q=-0.0 size=N/A time=00:00:59.30 bitrate=N/A speed=16.4x    frame= 1651 fps=400 q=-0.0 size=N/A time=00:01:08.86 bitrate=N/A speed=16.7x    frame= 1897 fps=409 q=-0.0 size=N/A time=00:01:19.12 bitrate=N/A speed=  17x    frame= 2145 fps=416 q=-0.0 size=N/A time=00:01:29.46 bitrate=N/A speed=17.3x    frame= 2401 fps=423 q=-0.0 size=N/A time=00:01:40.14 bitrate=N/A speed=17.7x    frame= 2643 fps=427 q=-0.0 size=N/A time=00:01:50.23 bitrate=N/A speed=17.8x    frame= 2901 fps=433 q=-0.0 size=N/A time=00:02:00.99 bitrate=N/A speed=18.1x    frame= 3049 fps=422 q=-0.0 size=N/A time=00:02:07.16 bitrate=N/A speed=17.6x    frame= 3240 fps=419 q=-0.0 size=N/A time=00:02:15.13 bitrate=N/A speed=17.5x    frame= 3464 fps=420 q=-0.0 size=N/A time=00:02:24.47 bitrate=N/A speed=17.5x    frame= 3643 fps=416 q=-0.0 size=N/A time=00:02:31.94 bitrate=N/A speed=17.4x    frame= 3870 fps=417 q=-0.0 size=N/A time=00:02:41.41 bitrate=N/A speed=17.4x    frame= 4126 fps=421 q=-0.0 size=N/A time=00:02:52.08 bitrate=N/A speed=17.6x    [Parsed_ssim_10 @ 000002d681b09900] SSIM Y:0.994720 (22.773374) U:0.994179 (22.350261) V:0.994704 (22.760155) All:0.994627 (22.697762)
[out#0/null @ 000002d6ffe90f40] video:1805KiB audio:33056KiB subtitle:0KiB other streams:0KiB global headers:0KiB muxing overhead: unknown
frame= 4200 fps=422 q=-0.0 Lsize=N/A time=00:02:55.17 bitrate=N/A speed=17.6x    
